<svg xmlns="http://www.w3.org/2000/svg" viewBox="0 0 600 600" width="600" height="600">
  <defs>
    <radialGradient id="bgGradL" cx="50%" cy="40%" r="60%">
      <stop offset="0%" stop-color="#F5F5F7"/>
      <stop offset="100%" stop-color="#E0E0E4"/>
    </radialGradient>
    <radialGradient id="orangeGradL" cx="35%" cy="30%" r="65%">
      <stop offset="0%" stop-color="#FF8C40"/>
      <stop offset="100%" stop-color="#D94F00"/>
    </radialGradient>
    <radialGradient id="blueGradL" cx="35%" cy="30%" r="65%">
      <stop offset="0%" stop-color="#7ED8FF"/>
      <stop offset="100%" stop-color="#1E9FD4"/>
    </radialGradient>
    <radialGradient id="greenGradL" cx="35%" cy="30%" r="65%">
      <stop offset="0%" stop-color="#9AED5A"/>
      <stop offset="100%" stop-color="#3DAA0A"/>
    </radialGradient>
    <radialGradient id="yellowGradL" cx="35%" cy="30%" r="65%">
      <stop offset="0%" stop-color="#FFE566"/>
      <stop offset="100%" stop-color="#E09000"/>
    </radialGradient>
    <filter id="dropShadow" x="-15%" y="-15%" width="130%" height="130%">
      <feDropShadow dx="0" dy="4" stdDeviation="8" flood-color="#00000022"/>
    </filter>
    <filter id="btnShadow" x="-20%" y="-20%" width="140%" height="140%">
      <feDropShadow dx="0" dy="6" stdDeviation="10" flood-color="#00000030"/>
    </filter>
  </defs>
  <rect x="0" y="0" width="600" height="600" rx="108" ry="108" fill="url(#bgGradL)"/>
  <rect x="210" y="80" width="180" height="440" rx="30" fill="#D0D0D5" opacity="0.6"/>
  <rect x="80" y="210" width="440" height="180" rx="30" fill="#D0D0D5" opacity="0.6"/>
  <circle cx="172" cy="172" r="108" fill="#BBBBC0" filter="url(#dropShadow)"/>
  <circle cx="172" cy="172" r="94" fill="#CBCBCF"/>
  <circle cx="428" cy="172" r="108" fill="#BBBBC0" filter="url(#dropShadow)"/>
  <circle cx="428" cy="172" r="94" fill="#CBCBCF"/>
  <circle cx="172" cy="428" r="108" fill="#BBBBC0" filter="url(#dropShadow)"/>
  <circle cx="172" cy="428" r="94" fill="#CBCBCF"/>
  <circle cx="428" cy="428" r="108" fill="#BBBBC0" filter="url(#dropShadow)"/>
  <circle cx="428" cy="428" r="94" fill="#CBCBCF"/>
  <circle cx="172" cy="172" r="78" fill="url(#orangeGradL)" filter="url(#btnShadow)"/>
  <circle cx="428" cy="172" r="78" fill="url(#blueGradL)" filter="url(#btnShadow)"/>
  <circle cx="172" cy="428" r="78" fill="url(#greenGradL)" filter="url(#btnShadow)"/>
  <circle cx="428" cy="428" r="78" fill="url(#yellowGradL)" filter="url(#btnShadow)"/>
  <ellipse cx="158" cy="145" rx="32" ry="20" fill="white" opacity="0.40"/>
  <ellipse cx="414" cy="145" rx="32" ry="20" fill="white" opacity="0.40"/>
  <ellipse cx="158" cy="401" rx="32" ry="20" fill="white" opacity="0.40"/>
  <ellipse cx="414" cy="401" rx="32" ry="20" fill="white" opacity="0.40"/>
  <circle cx="300" cy="300" r="72" fill="#C8C8CC" filter="url(#dropShadow)"/>
  <circle cx="300" cy="300" r="62" fill="#DADADF"/>
  <text x="300" y="530" text-anchor="middle" font-family="'Arial Black', sans-serif" font-weight="900" font-size="34" letter-spacing="3" fill="#1C1C1E" opacity="0.88">기억력배틀</text>
  <text x="300" y="558" text-anchor="middle" font-family="'Arial Black', sans-serif" font-weight="700" font-size="16" letter-spacing="5" fill="#D94F00" opacity="0.85">MEMORY BATTLE</text>
</svg>
