<svg xmlns="http://www.w3.org/2000/svg" viewBox="0 0 600 600" width="600" height="600">
  <defs>
    <radialGradient id="bgGrad" cx="50%" cy="40%" r="60%">
      <stop offset="0%" stop-color="#2C2C2E"/>
      <stop offset="100%" stop-color="#111113"/>
    </radialGradient>
    <radialGradient id="orangeGrad" cx="35%" cy="30%" r="65%">
      <stop offset="0%" stop-color="#FF8C40"/>
      <stop offset="100%" stop-color="#D94F00"/>
    </radialGradient>
    <radialGradient id="blueGrad" cx="35%" cy="30%" r="65%">
      <stop offset="0%" stop-color="#7ED8FF"/>
      <stop offset="100%" stop-color="#1E9FD4"/>
    </radialGradient>
    <radialGradient id="greenGrad" cx="35%" cy="30%" r="65%">
      <stop offset="0%" stop-color="#9AED5A"/>
      <stop offset="100%" stop-color="#3DAA0A"/>
    </radialGradient>
    <radialGradient id="yellowGrad" cx="35%" cy="30%" r="65%">
      <stop offset="0%" stop-color="#FFE566"/>
      <stop offset="100%" stop-color="#E09000"/>
    </radialGradient>
    <filter id="glowOrange" x="-30%" y="-30%" width="160%" height="160%">
      <feGaussianBlur stdDeviation="10" result="blur"/>
      <feMerge><feMergeNode in="blur"/><feMergeNode in="SourceGraphic"/></feMerge>
    </filter>
    <filter id="glowBlue" x="-30%" y="-30%" width="160%" height="160%">
      <feGaussianBlur stdDeviation="10" result="blur"/>
      <feMerge><feMergeNode in="blur"/><feMergeNode in="SourceGraphic"/></feMerge>
    </filter>
  </defs>
  <rect x="0" y="0" width="600" height="600" rx="108" ry="108" fill="url(#bgGrad)"/>
  <rect x="210" y="80" width="180" height="440" rx="30" fill="#242426" opacity="0.7"/>
  <rect x="80" y="210" width="440" height="180" rx="30" fill="#242426" opacity="0.7"/>
  <circle cx="172" cy="172" r="108" fill="#1A1A1C"/>
  <circle cx="172" cy="172" r="94" fill="#2A2A2C"/>
  <circle cx="428" cy="172" r="108" fill="#1A1A1C"/>
  <circle cx="428" cy="172" r="94" fill="#2A2A2C"/>
  <circle cx="172" cy="428" r="108" fill="#1A1A1C"/>
  <circle cx="172" cy="428" r="94" fill="#2A2A2C"/>
  <circle cx="428" cy="428" r="108" fill="#1A1A1C"/>
  <circle cx="428" cy="428" r="94" fill="#2A2A2C"/>
  <circle cx="172" cy="172" r="80" fill="#FF6900" opacity="0.25" filter="url(#glowOrange)"/>
  <circle cx="428" cy="172" r="80" fill="#3BB5E0" opacity="0.25" filter="url(#glowBlue)"/>
  <circle cx="172" cy="428" r="80" fill="#5ECC1B" opacity="0.20" filter="url(#glowOrange)"/>
  <circle cx="428" cy="428" r="80" fill="#FFC200" opacity="0.25" filter="url(#glowBlue)"/>
  <circle cx="172" cy="172" r="78" fill="url(#orangeGrad)"/>
  <circle cx="428" cy="172" r="78" fill="url(#blueGrad)"/>
  <circle cx="172" cy="428" r="78" fill="url(#greenGrad)"/>
  <circle cx="428" cy="428" r="78" fill="url(#yellowGrad)"/>
  <ellipse cx="158" cy="145" rx="32" ry="20" fill="white" opacity="0.30"/>
  <ellipse cx="414" cy="145" rx="32" ry="20" fill="white" opacity="0.30"/>
  <ellipse cx="158" cy="401" rx="32" ry="20" fill="white" opacity="0.30"/>
  <ellipse cx="414" cy="401" rx="32" ry="20" fill="white" opacity="0.30"/>
  <circle cx="300" cy="300" r="72" fill="#1A1A1C"/>
  <circle cx="300" cy="300" r="62" fill="#222224"/>
  <text x="300" y="530" text-anchor="middle" font-family="'Arial Black', sans-serif" font-weight="900" font-size="34" letter-spacing="3" fill="#FFFFFF" opacity="0.92">기억력배틀</text>
  <text x="300" y="558" text-anchor="middle" font-family="'Arial Black', sans-serif" font-weight="700" font-size="16" letter-spacing="5" fill="#FF6900" opacity="0.85">MEMORY BATTLE</text>
</svg>
